# Blender v2.93.5 OBJ File: 'stopsign.blend'
# www.blender.org
mtllib stopsign1.mtl
o Cylinder.001
v -0.389023 -0.007040 -0.921228
v -0.389023 0.007040 -0.921228
v 0.376325 -0.007040 -0.926488
v 0.376325 0.007040 -0.926488
v 0.921228 -0.007040 -0.389023
v 0.921228 0.007040 -0.389023
v 0.926488 -0.007040 0.376325
v 0.926488 0.007040 0.376325
v 0.389023 -0.007040 0.921228
v 0.389023 0.007040 0.921228
v -0.376326 -0.007040 0.926488
v -0.376326 0.007040 0.926488
v -0.921228 -0.007040 0.389023
v -0.921228 0.007040 0.389023
v -0.926488 -0.007040 -0.376325
v -0.926488 0.007040 -0.376325
vt -0.207137 0.207926
vt 0.792074 -0.207137
vt 1.207137 0.792074
vt 0.207926 1.207137
vt -0.207137 0.207926
vt 0.792074 -0.207137
vt 1.207137 0.792074
vt 0.207926 1.207137
vt -0.207137 0.207926
vt 0.792074 -0.207137
vt 1.207137 0.792074
vt 0.207926 1.207137
vt -0.207137 0.207926
vt 0.792074 -0.207137
vt 1.207137 0.792074
vt 0.207926 1.207137
vt -0.207137 0.207926
vt 0.792074 -0.207137
vt 1.207137 0.792074
vt 0.207926 1.207137
vt -0.207137 0.207926
vt 0.792074 -0.207137
vt 1.207137 0.792074
vt 0.207926 1.207137
vt 0.292984 0.999819
vt 0.707044 0.999808
vt 0.999819 0.707016
vt 0.999808 0.292956
vt 0.707016 0.000181
vt 0.292956 0.000192
vt 0.000181 0.292984
vt 0.000192 0.707043
vt -0.207137 0.207926
vt 0.792074 -0.207137
vt 1.207137 0.792074
vt 0.207926 1.207137
vt -0.207137 0.207926
vt 0.792074 -0.207137
vt 1.207137 0.792074
vt 0.207926 1.207137
vt 0.999606 0.292469
vt 0.706528 -0.000021
vt 0.292469 0.000394
vt -0.000021 0.293472
vt 0.000395 0.707531
vt 0.293472 1.000021
vt 0.707531 0.999605
vt 1.000021 0.706528
vn -0.0069 0.0000 -1.0000
vn 0.7022 0.0000 -0.7119
vn 1.0000 0.0000 -0.0069
vn 0.7119 0.0000 0.7022
vn 0.0069 0.0000 1.0000
vn -0.7022 0.0000 0.7119
vn 0.0000 1.0000 0.0000
vn -0.7119 0.0000 -0.7022
vn -1.0000 0.0000 0.0069
vn 0.0000 -1.0000 0.0000
usemtl Material.002
s off
f 1/1/1 2/2/1 4/3/1 3/4/1
f 3/5/2 4/6/2 6/7/2 5/8/2
f 5/9/3 6/10/3 8/11/3 7/12/3
f 7/13/4 8/14/4 10/15/4 9/16/4
f 9/17/5 10/18/5 12/19/5 11/20/5
f 11/21/6 12/22/6 14/23/6 13/24/6
f 4/25/7 2/26/7 16/27/7 14/28/7 12/29/7 10/30/7 8/31/7 6/32/7
f 15/33/8 16/34/8 2/35/8 1/36/8
f 13/37/9 14/38/9 16/39/9 15/40/9
usemtl Material.003
f 1/41/10 3/42/10 5/43/10 7/44/10 9/45/10 11/46/10 13/47/10 15/48/10
